# xmcd CD database file
#
# Track frame offsets:
#	150
#	12607
#	31997
#	46822
#	61857
#	76287
#	87572
#	99915
#	118197
#	134980
#	150797
#	166847
#	179702
#	195802
#	208530
#	220522
#	230007
#
# Disc length: 3249 seconds
#
# Revision: 0
# Processed by: cddbd v1.5.2PL0 Copyright (c) Steve Scherf et al.
# Submitted via: CdAid (MTCDDB.DLL V2003.12.21)
#
DISCID=dd0caf11
DTITLE=Rony e Roger - Rony e Roger
DYEAR=1998
DGENRE=Folk
TTITLE0=Festa na arena
TTITLE1=Estrela guia
TTITLE2=Amor que não nasceu
TTITLE3=Só uma noite de amor
TTITLE4=Nem tudo esta perdido
TTITLE5=Amor sem fim
TTITLE6=Coceira danada
TTITLE7=Pulmão do mundo
TTITLE8=Quero você sempre comigo
TTITLE9=Vai peão
TTITLE10=Canta poeta
TTITLE11=Não vivo sem teus carinhos
TTITLE12=Jogo do amor
TTITLE13=Pagodeiro
TTITLE14=Magia da natureza
TTITLE15=Amor dividido
TTITLE16=Amor e ser amado
EXTD=ID3G:  80 YEAR: 1998
EXTT0=
EXTT1=
EXTT2=
EXTT3=
EXTT4=
EXTT5=
EXTT6=
EXTT7=
EXTT8=
EXTT9=
EXTT10=
EXTT11=
EXTT12=
EXTT13=
EXTT14=
EXTT15=
EXTT16=
PLAYORDER=
